# xmcd
#
# Track frame offsets:
#	150
#	23696
#	44941
#	59104
#	79431
#	94661
#	113738
#	133388
#	152094
#	170070
#	185600
#	215399
#	233325
#	253843
#	276352
#
# Disc length: 4004
#
# Revision: 0
# Processed by: cddbd v1.5.1PL2 Copyright (c) Steve Scherf et al.
# Submitted via: Broken Cross Disk Manager 3.81.2155
#
DISCID=e30fa20f
DTITLE=Living The Blues - Blues Rock CD1
DYEAR=2001
DGENRE=
TTITLE0=Michael Hill's Blues Mob - Hard Blues For Hard Times
TTITLE1=Rory Gallagher - Cruise On Out
TTITLE2=Elvin Bishop - Don't Lie To Me
TTITLE3=Taj Mahal - Dust My Broom
TTITLE4=Jeff Healey - Don't Let Your Chance Go By
TTITLE5=John Mayall - John Lee Boogie
TTITLE6=Bloomfield and Cooper - Stop
TTITLE7=Albert Collins - I Ain't Drunk
TTITLE8=Bob Margolin - Movin' South
TTITLE9=Paladins - Years Since Yesterday
TTITLE10=Johnny Winter - Third Degree
TTITLE11=Lucky Peterson - Over My Head
TTITLE12=Lonnie Mack - Satisfy Suzie
TTITLE13=Jeff Beck Group - Tonight I'll Be Staying Here With You
TTITLE14=Stevie Ray Vaughan - Texas Flood
EXTD=
EXTT0=
EXTT1=
EXTT2=
EXTT3=
EXTT4=
EXTT5=
EXTT6=
EXTT7=
EXTT8=
EXTT9=
EXTT10=
EXTT11=
EXTT12=
EXTT13=
EXTT14=
PLAYORDER=
